<svg width="147" height="83" viewBox="0 0 147 83" fill="none" xmlns="http://www.w3.org/2000/svg">
<g clip-path="url(#clip0_12_121)">
<rect x="93.9763" y="16" width="54" height="54" rx="11" transform="rotate(15 93.9763 16)" fill="#E94F37" fill-opacity="0.4"/>
<path d="M82.2682 59.695C99.6746 44.9617 95.7923 59.4506 107.84 60.8529" stroke="#E94F37" stroke-width="4" stroke-linecap="round"/>
<path d="M93.6066 75.3349C117.24 54.7501 116.212 45.0628 127.502 64.7469C138.792 84.4309 144.216 66.1196 149.624 69.1214" stroke="#E94F37" stroke-width="4" stroke-linecap="round"/>
<circle cx="130.473" cy="38.2027" r="6" transform="rotate(15 130.473 38.2027)" fill="#E94F37"/>
<ellipse cx="104.557" cy="28.6703" rx="3.5" ry="1.5" transform="rotate(15 104.557 28.6703)" fill="#E94F37"/>
<ellipse cx="101.142" cy="29.8257" rx="3.5" ry="1.5" transform="rotate(15 101.142 29.8257)" fill="#E94F37"/>
<ellipse cx="105.972" cy="31.1198" rx="3.5" ry="1.5" transform="rotate(15 105.972 31.1198)" fill="#E94F37"/>
<ellipse cx="108.162" cy="30.6716" rx="3.5" ry="1.5" transform="rotate(15 108.162 30.6716)" fill="#E94F37"/>
</g>
<rect x="94.3298" y="16.6124" width="53" height="53" rx="10.5" transform="rotate(15 94.3298 16.6124)" stroke="#87382B"/>
<g clip-path="url(#clip1_12_121)">
<rect y="29.9762" width="54" height="54" rx="11" transform="rotate(-15 0 29.9762)" fill="#E94F37" fill-opacity="0.4"/>
<path d="M11.7081 73.6713C19.4158 52.2086 23.298 66.6975 34.4327 61.8882" stroke="#E94F37" stroke-width="4" stroke-linecap="round"/>
<path d="M29.3474 81.5465C39.5218 51.9031 33.788 44.0275 53.4076 55.4294C73.0271 66.8312 68.5689 48.261 74.7527 48.157" stroke="#E94F37" stroke-width="4" stroke-linecap="round"/>
<circle cx="42.7088" cy="30.9557" r="6" transform="rotate(-15 42.7088 30.9557)" fill="#E94F37"/>
<ellipse cx="15.4988" cy="35.6585" rx="3.5" ry="1.5" transform="rotate(-15 15.4988 35.6585)" fill="#E94F37"/>
<ellipse cx="13.1186" cy="38.3668" rx="3.5" ry="1.5" transform="rotate(-15 13.1186 38.3668)" fill="#E94F37"/>
<ellipse cx="17.9483" cy="37.0727" rx="3.5" ry="1.5" transform="rotate(-15 17.9483 37.0727)" fill="#E94F37"/>
<ellipse cx="19.6213" cy="35.5891" rx="3.5" ry="1.5" transform="rotate(-15 19.6213 35.5891)" fill="#E94F37"/>
</g>
<rect x="0.612372" y="30.3298" width="53" height="53" rx="10.5" transform="rotate(-15 0.612372 30.3298)" stroke="#87382B"/>
<g clip-path="url(#clip2_12_121)">
<rect x="45.9834" y="11.9834" width="54" height="54" rx="11" fill="#6F3228"/>
<path d="M45.9834 57.2198C58.9834 38.4834 58.9834 53.4834 70.9834 51.7198" stroke="#E94F37" stroke-width="4" stroke-linecap="round"/>
<path d="M60.9834 69.3921C78.4834 43.3921 74.9834 34.3009 90.9834 50.3921C106.983 66.4834 107.483 47.3921 113.483 48.8921" stroke="#E94F37" stroke-width="4" stroke-linecap="round"/>
<circle cx="86.9834" cy="23.9834" r="6" fill="#E94F37"/>
<ellipse cx="59.4834" cy="21.4834" rx="3.5" ry="1.5" fill="#E94F37"/>
<ellipse cx="56.4834" cy="23.4834" rx="3.5" ry="1.5" fill="#E94F37"/>
<ellipse cx="61.4834" cy="23.4834" rx="3.5" ry="1.5" fill="#E94F37"/>
<ellipse cx="63.4834" cy="22.4834" rx="3.5" ry="1.5" fill="#E94F37"/>
</g>
<rect x="46.4834" y="12.4834" width="53" height="53" rx="10.5" stroke="#87382B"/>
<defs>
<clipPath id="clip0_12_121">
<rect x="93.9763" y="16" width="54" height="54" rx="11" transform="rotate(15 93.9763 16)" fill="white"/>
</clipPath>
<clipPath id="clip1_12_121">
<rect y="29.9762" width="54" height="54" rx="11" transform="rotate(-15 0 29.9762)" fill="white"/>
</clipPath>
<clipPath id="clip2_12_121">
<rect x="45.9834" y="11.9834" width="54" height="54" rx="11" fill="white"/>
</clipPath>
</defs>
</svg>
