<svg width="119" height="111" viewBox="0 0 119 111" fill="none" xmlns="http://www.w3.org/2000/svg">
<g clip-path="url(#clip0_4_90)">
<rect y="15.3073" width="54" height="54" rx="11" transform="rotate(-13.1742 0 15.3073)" fill="#E94F37" fill-opacity="0.4"/>
<path d="M8.3077 24.4733C8.55633 25.5355 9.65167 26.3995 10.6677 26.1617C11.6837 25.9239 12.4511 24.6238 12.2439 23.7387C12.0366 22.8535 11.2801 21.9102 9.92533 22.2273C8.5706 22.5444 8.05906 23.4111 8.3077 24.4733Z" stroke="#E94F37" stroke-width="4" stroke-linecap="round"/>
<path d="M-8.78192 83.0928L25.2273 53.2826C35.7257 57.276 57.8791 64.3679 57.8791 64.3679C57.8791 64.3679 90.2837 37.4303 105.908 24.4091L127.969 31.1064" stroke="#E94F37" stroke-width="4" stroke-linecap="square"/>
<path d="M9.05952 54.0111L19.6763 33.553C24.2617 37.786 33.8055 45.6512 33.8055 45.6512C33.8055 45.6512 44.0666 27.3304 49.0108 18.4703L58.4786 26.011" stroke="#E94F37" stroke-width="4" stroke-linecap="square"/>
</g>
<rect x="70.3448" y="0.224243" width="54" height="54" rx="11" transform="rotate(26.5308 70.3448 0.224243)" fill="#E94F37" fill-opacity="0.4"/>
<path d="M92.2046 41.2322L73.1818 42.2966L81.7714 25.2901L92.2046 41.2322Z" fill="#E94F37"/>
<rect x="35.8707" y="51" width="54" height="54" rx="11" transform="rotate(6.24133 35.8707 51)" fill="#E94F37" fill-opacity="0.4"/>
<rect x="39.6157" y="65.8301" width="26" height="26" rx="6" transform="rotate(6.24133 39.6157 65.8301)" fill="#E94F37"/>
<path d="M80.242 89.5634C80.0842 91.0371 78.4343 91.8333 77.1825 91.0397L65.5693 83.6774C64.2444 82.8374 64.3582 80.8687 65.771 80.187L78.8476 73.8772C80.2604 73.1954 81.8723 74.3315 81.7054 75.8913L80.242 89.5634Z" fill="#E94F37"/>
<defs>
<clipPath id="clip0_4_90">
<rect y="15.3073" width="54" height="54" rx="11" transform="rotate(-13.1742 0 15.3073)" fill="white"/>
</clipPath>
</defs>
</svg>
