<svg width="135" height="42" viewBox="0 0 135 42" fill="none" xmlns="http://www.w3.org/2000/svg">
<path d="M46.976 40.64H32.768L38.656 12.992L23.488 40.64H14.784L11.904 12.032L5.76 40.64H0L8.64 -3.8147e-06H24.96L26.944 22.912L39.232 -3.8147e-06H55.68L46.976 40.64ZM67.1953 41.1322C64.8516 41.1322 62.8281 40.5853 61.125 39.4916C59.4375 38.3822 58.1328 36.8587 57.2109 34.9212C56.2891 32.9681 55.8281 30.7416 55.8281 28.2416V27.7259C55.8281 25.2259 56.2891 23.0072 57.2109 21.0697C58.1328 19.1166 59.4375 17.5853 61.125 16.4759C62.8281 15.3666 64.8359 14.8119 67.1484 14.8119C69.4922 14.8119 71.5078 15.3666 73.1953 16.4759C74.8984 17.5853 76.2109 19.1087 77.1328 21.0462C78.0547 22.9837 78.5156 25.2103 78.5156 27.7259V28.2416C78.5156 30.7572 78.0547 32.9916 77.1328 34.9447C76.2109 36.8822 74.9062 38.3978 73.2188 39.4916C71.5312 40.5853 69.5234 41.1322 67.1953 41.1322ZM67.1953 37.5228C68.6641 37.5228 69.8906 37.1244 70.875 36.3275C71.875 35.515 72.625 34.4134 73.125 33.0228C73.6406 31.6166 73.8984 30.0228 73.8984 28.2416V27.7259C73.8984 25.9447 73.6406 24.3587 73.125 22.9681C72.625 21.5619 71.875 20.4603 70.875 19.6634C69.875 18.8509 68.6328 18.4447 67.1484 18.4447C65.6797 18.4447 64.4453 18.8509 63.4453 19.6634C62.4453 20.4603 61.6953 21.5619 61.1953 22.9681C60.6953 24.3587 60.4453 25.9447 60.4453 27.7259V28.2416C60.4453 30.0228 60.6953 31.6166 61.1953 33.0228C61.6953 34.4134 62.4453 35.515 63.4453 36.3275C64.4609 37.1244 65.7109 37.5228 67.1953 37.5228ZM81.375 40.64V37.6869L85.1953 37.0306V7.71031L81.375 7.05406V4.0775H89.8125V37.0306L93.6328 37.6869V40.64H81.375ZM97.6641 40.64V37.6869L100.242 37.3822L100.172 37.2884L92.8359 27.8197L95.2266 24.14L105.469 37.1244L109.125 37.6869V40.64H97.6641ZM89.4844 33.3041L87.7734 29.6712L98.7891 18.7025L98.9062 18.5619L96.1875 18.2572V15.2806H107.109V18.2572L103.852 18.8666L89.4844 33.3041ZM119.531 41.1322C116.891 41.1322 114.883 40.4916 113.508 39.2103C112.133 37.9134 111.445 36.0931 111.445 33.7494C111.445 31.3431 112.43 29.4134 114.398 27.9603C116.367 26.4916 119.102 25.7572 122.602 25.7572H127.125V23.2728C127.125 21.7416 126.656 20.5541 125.719 19.7103C124.797 18.8666 123.492 18.4447 121.805 18.4447C120.742 18.4447 119.82 18.5775 119.039 18.8431C118.258 19.0931 117.547 19.4447 116.906 19.8978L116.414 23.4369H112.852V17.6244C113.992 16.7025 115.32 16.0072 116.836 15.5384C118.352 15.0541 120.031 14.8119 121.875 14.8119C124.953 14.8119 127.367 15.5462 129.117 17.015C130.867 18.4837 131.742 20.5853 131.742 23.3197V35.5306C131.742 35.8587 131.742 36.1791 131.742 36.4916C131.758 36.8041 131.781 37.1166 131.812 37.4291L134.273 37.6869V40.64H127.641C127.5 39.9525 127.391 39.3353 127.312 38.7884C127.234 38.2416 127.18 37.6947 127.148 37.1478C126.258 38.2884 125.141 39.2416 123.797 40.0072C122.469 40.7572 121.047 41.1322 119.531 41.1322ZM120.211 37.265C121.742 37.265 123.141 36.8978 124.406 36.1634C125.672 35.4291 126.578 34.5462 127.125 33.515V28.9212H122.438C120.312 28.9212 118.719 29.4291 117.656 30.4447C116.594 31.4603 116.062 32.5931 116.062 33.8431C116.062 34.9525 116.406 35.8041 117.094 36.3978C117.781 36.9759 118.82 37.265 120.211 37.265Z" fill="#E94F37"/>
</svg>
