<svg width="162" height="44" viewBox="0 0 162 44" fill="none" xmlns="http://www.w3.org/2000/svg">
<path d="M46.976 43.008H32.768L38.656 15.36L23.488 43.008H14.784L11.904 14.4L5.76 43.008H0L8.64 2.36799H24.96L26.944 25.28L39.232 2.36799H55.68L46.976 43.008ZM73.785 14.784C78.8623 14.784 82.553 15.68 84.857 17.472C87.289 19.3493 88.505 22.464 88.505 26.816C88.505 29.504 88.057 31.936 87.161 34.112C86.265 36.2453 85.0063 38.016 83.385 39.424C80.1423 42.1547 75.449 43.52 69.305 43.52C64.057 43.52 60.3023 42.5173 58.041 40.512C55.609 38.4213 54.393 35.2853 54.393 31.104C54.393 28.3307 54.9477 25.8133 56.057 23.552C57.209 21.2907 58.8517 19.4133 60.985 17.92C64.0997 15.8293 68.3663 14.784 73.785 14.784ZM69.433 39.168C70.4997 39.168 71.417 38.5707 72.185 37.376C72.9957 36.1813 73.6357 34.7307 74.105 33.024C74.5743 31.2747 74.9157 29.4827 75.129 27.648C75.385 25.7707 75.513 24.1493 75.513 22.784C75.513 21.5893 75.385 20.6933 75.129 20.096C74.9157 19.456 74.425 19.136 73.657 19.136C72.505 19.136 71.5023 19.7547 70.649 20.992C69.8383 22.2293 69.177 23.7013 68.665 25.408C68.153 27.1147 67.769 28.864 67.513 30.656C67.2997 32.448 67.193 33.8987 67.193 35.008C67.193 37.7813 67.9397 39.168 69.433 39.168ZM106.246 27.136L121.158 15.488H129.606L116.87 25.92L126.406 43.008H112.07L105.542 30.144L102.854 43.008H89.7975L98.8855 -7.62939e-06H112.006L106.246 27.136ZM132.733 17.856C134.909 16.7893 137.128 16.0213 139.389 15.552C141.693 15.04 144.253 14.784 147.069 14.784C149.8 14.784 152.061 14.9973 153.853 15.424C155.645 15.8507 157.074 16.4693 158.141 17.28C159.208 18.0907 159.954 19.0507 160.381 20.16C160.808 21.2693 161.021 22.528 161.021 23.936C161.021 24.7467 160.957 25.6213 160.829 26.56C160.744 27.4987 160.637 28.288 160.509 28.928L157.501 43.008H147.197L146.045 38.912H145.661C144.296 40.4053 142.696 41.5573 140.861 42.368C139.069 43.136 137.277 43.52 135.485 43.52C134.461 43.52 133.458 43.3707 132.477 43.072C131.496 42.7733 130.621 42.3253 129.853 41.728C129.085 41.088 128.466 40.2987 127.997 39.36C127.528 38.3787 127.293 37.2053 127.293 35.84C127.293 33.6213 127.89 31.872 129.085 30.592C130.322 29.2693 131.922 28.288 133.885 27.648C135.89 26.9653 138.13 26.5387 140.605 26.368C143.122 26.1973 145.64 26.112 148.157 26.112C148.242 25.6853 148.349 25.088 148.477 24.32C148.605 23.5093 148.669 22.8053 148.669 22.208C148.669 21.44 148.456 20.736 148.029 20.096C147.645 19.4133 146.813 19.072 145.533 19.072C144.04 19.072 142.93 19.52 142.205 20.416C141.522 21.2693 141.074 22.3147 140.861 23.552H131.517L132.733 17.856ZM147.453 29.12H146.301C145.064 29.12 143.997 29.2907 143.101 29.632C142.248 29.9307 141.544 30.336 140.989 30.848C140.477 31.36 140.093 31.936 139.837 32.576C139.581 33.216 139.453 33.856 139.453 34.496C139.453 35.52 139.709 36.288 140.221 36.8C140.776 37.312 141.416 37.568 142.141 37.568C143.037 37.568 143.912 37.248 144.765 36.608C145.661 35.968 146.216 35.1147 146.429 34.048L147.453 29.12Z" fill="#E94F37"/>
</svg>
